<?xml version="1.0" encoding="utf-8"?>
<svg width="67px" height="63px" viewBox="0 0 67 63" version="1.1" xmlns:xlink="http://www.w3.org/1999/xlink" xmlns="http://www.w3.org/2000/svg">
  <g id="Group" transform="translate(1 1)">
    <path d="M16.6235 3.77881L30.8675 3.77881Q31.0639 3.77881 31.26 3.78844Q31.4561 3.79808 31.6515 3.81733Q31.847 3.83657 32.0412 3.86539Q32.2354 3.8942 32.428 3.93251Q32.6206 3.97082 32.8111 4.01853Q33.0016 4.06624 33.1895 4.12324Q33.3774 4.18024 33.5623 4.2464Q33.7472 4.31255 33.9286 4.3877Q34.11 4.46284 34.2875 4.5468Q34.465 4.63075 34.6382 4.72332Q34.8114 4.81589 34.9798 4.91684Q35.1482 5.01779 35.3115 5.12688Q35.4748 5.23598 35.6325 5.35295Q35.7902 5.46992 35.942 5.5945Q36.0938 5.71907 36.2393 5.85094Q36.3848 5.98281 36.5236 6.12166Q36.6625 6.26051 36.7944 6.40601Q36.9262 6.55151 37.0508 6.7033Q37.1754 6.85509 37.2923 7.01281Q37.4093 7.17053 37.5184 7.3338Q37.6275 7.49707 37.7285 7.6655Q37.8294 7.83393 37.922 8.00711Q38.0145 8.18028 38.0985 8.35779Q38.1825 8.53531 38.2576 8.71672Q38.3327 8.89814 38.3989 9.08303Q38.4651 9.26791 38.5221 9.45582Q38.5791 9.64373 38.6268 9.83421Q38.6745 10.0247 38.7128 10.2173Q38.7511 10.4099 38.7799 10.6041Q38.8087 10.7984 38.828 10.9938Q38.8472 11.1892 38.8569 11.3853Q38.8665 11.5814 38.8665 11.7778L38.8665 30.5264L56.401 30.5264Q56.5974 30.5264 56.7935 30.536Q56.9897 30.5457 57.1851 30.5649Q57.3805 30.5842 57.5747 30.613Q57.769 30.6418 57.9616 30.6801Q58.1542 30.7184 58.3446 30.7661Q58.5351 30.8138 58.723 30.8708Q58.9109 30.9278 59.0958 30.994Q59.2807 31.0601 59.4621 31.1353Q59.6435 31.2104 59.821 31.2944Q59.9986 31.3783 60.1717 31.4709Q60.3449 31.5635 60.5133 31.6644Q60.6818 31.7654 60.845 31.8745Q61.0083 31.9836 61.166 32.1005Q61.3237 32.2175 61.4755 32.3421Q61.6273 32.4667 61.7728 32.5985Q61.9183 32.7304 62.0572 32.8692Q62.196 33.0081 62.3279 33.1536Q62.4598 33.2991 62.5843 33.4509Q62.7089 33.6027 62.8259 33.7604Q62.9429 33.9181 63.052 34.0814Q63.161 34.2447 63.262 34.4131Q63.3629 34.5815 63.4555 34.7547Q63.5481 34.9279 63.632 35.1054Q63.716 35.2829 63.7911 35.4643Q63.8663 35.6457 63.9324 35.8306Q63.9986 36.0155 64.0556 36.2034Q64.1126 36.3913 64.1603 36.5818Q64.208 36.7723 64.2463 36.9649Q64.2846 37.1574 64.3134 37.3517Q64.3423 37.5459 64.3615 37.7413Q64.3808 37.9368 64.3904 38.1329Q64.4 38.329 64.4 38.5254L64.4 52.2711Q64.4 52.4674 64.3904 52.6636Q64.3807 52.8597 64.3615 53.0551Q64.3423 53.2505 64.3134 53.4448Q64.2846 53.639 64.2463 53.8316Q64.208 54.0242 64.1603 54.2146Q64.1126 54.4051 64.0556 54.593Q63.9986 54.7809 63.9324 54.9658Q63.8663 55.1507 63.7911 55.3321Q63.716 55.5136 63.632 55.6911Q63.5481 55.8686 63.4555 56.0418Q63.3629 56.2149 63.262 56.3834Q63.161 56.5518 63.0519 56.7151Q62.9428 56.8783 62.8259 57.0361Q62.7089 57.1938 62.5843 57.3456Q62.4598 57.4974 62.3279 57.6429Q62.196 57.7883 62.0572 57.9272Q61.9183 58.0661 61.7728 58.1979Q61.6273 58.3298 61.4755 58.4544Q61.3237 58.5789 61.166 58.6959Q61.0083 58.8129 60.845 58.922Q60.6818 59.0311 60.5133 59.132Q60.3449 59.233 60.1717 59.3255Q59.9985 59.4181 59.821 59.5021Q59.6435 59.586 59.4621 59.6612Q59.2807 59.7363 59.0958 59.8025Q58.9109 59.8686 58.723 59.9256Q58.5351 59.9826 58.3446 60.0303Q58.1541 60.078 57.9616 60.1164Q57.769 60.1547 57.5747 60.1835Q57.3805 60.2123 57.1851 60.2315Q56.9896 60.2508 56.7935 60.2604Q56.5974 60.2701 56.401 60.2701L7.999 60.2701Q7.80264 60.2701 7.60651 60.2604Q7.41038 60.2508 7.21496 60.2315Q7.01954 60.2123 6.8253 60.1835Q6.63106 60.1547 6.43847 60.1164Q6.24588 60.078 6.0554 60.0303Q5.86492 59.9826 5.67701 59.9256Q5.4891 59.8686 5.30422 59.8025Q5.11933 59.7363 4.93791 59.6612Q4.7565 59.586 4.57899 59.5021Q4.40148 59.4181 4.2283 59.3255Q4.05512 59.233 3.88669 59.132Q3.71826 59.0311 3.55499 58.922Q3.39172 58.8129 3.234 58.6959Q3.07628 58.5789 2.92449 58.4544Q2.7727 58.3298 2.6272 58.1979Q2.4817 58.0661 2.34285 57.9272Q2.204 57.7883 2.07213 57.6428Q1.94026 57.4974 1.81569 57.3456Q1.69112 57.1938 1.57414 57.036Q1.45717 56.8783 1.34807 56.7151Q1.23898 56.5518 1.13803 56.3834Q1.03708 56.2149 0.944512 56.0418Q0.851946 55.8686 0.76799 55.6911Q0.684033 55.5136 0.608888 55.3321Q0.533742 55.1507 0.467589 54.9658Q0.401436 54.781 0.344434 54.593Q0.287433 54.4051 0.23972 54.2146Q0.192007 54.0242 0.153699 53.8316Q0.11539 53.639 0.0865771 53.4448Q0.0577644 53.2505 0.0385174 53.0551Q0.0192703 52.8597 0.00963514 52.6636Q0 52.4674 0 52.2711L0 31.419L0 17.6238Q0 17.1357 0.0593458 16.6512Q0.118692 16.1667 0.236503 15.6931Q0.354314 15.2194 0.528842 14.7636Q0.70337 14.3078 0.932025 13.8765Q1.16068 13.4453 1.44007 13.0451Q1.71946 12.6449 2.04544 12.2816Q2.37142 11.9183 2.73915 11.5973Q3.10688 11.2764 3.51091 11.0025L12.1354 5.15655Q12.6294 4.82174 13.1675 4.56393Q13.7057 4.30611 14.2761 4.131Q14.8466 3.95588 15.4367 3.86735Q16.0268 3.77881 16.6235 3.77881Z" id="Rectangle-4" fill="#7B33EF" fill-rule="evenodd" stroke="none" />
    <path d="M15.7585 0L26.6944 0Q26.8908 0 27.0869 0.00963514Q27.283 0.0192703 27.4784 0.0385174Q27.6739 0.0577644 27.8681 0.0865771Q28.0623 0.11539 28.2549 0.153699Q28.4475 0.192007 28.638 0.23972Q28.8285 0.287433 29.0164 0.344434Q29.2043 0.401436 29.3892 0.467589Q29.5741 0.533742 29.7555 0.608888Q29.9369 0.684033 30.1144 0.76799Q30.2919 0.851946 30.4651 0.944512Q30.6383 1.03708 30.8067 1.13803Q30.9751 1.23898 31.1384 1.34807Q31.3017 1.45717 31.4594 1.57414Q31.6171 1.69112 31.7689 1.81569Q31.9207 1.94026 32.0662 2.07213Q32.2117 2.204 32.3505 2.34285Q32.4894 2.4817 32.6213 2.6272Q32.7531 2.7727 32.8777 2.92449Q33.0023 3.07628 33.1193 3.234Q33.2362 3.39172 33.3453 3.55499Q33.4544 3.71826 33.5554 3.88669Q33.6563 4.05512 33.7489 4.2283Q33.8414 4.40148 33.9254 4.57899Q34.0094 4.7565 34.0845 4.93791Q34.1597 5.11933 34.2258 5.30422Q34.292 5.4891 34.349 5.67701Q34.406 5.86492 34.4537 6.0554Q34.5014 6.24588 34.5397 6.43847Q34.578 6.63106 34.6068 6.8253Q34.6356 7.01954 34.6549 7.21496Q34.6741 7.41038 34.6838 7.60651Q34.6934 7.80264 34.6934 7.999L34.6934 26.7476L49.0922 26.7476Q49.2886 26.7476 49.4847 26.7572Q49.6809 26.7668 49.8763 26.7861Q50.0717 26.8053 50.2659 26.8342Q50.4602 26.863 50.6528 26.9013Q50.8453 26.9396 51.0358 26.9873Q51.2263 27.035 51.4142 27.092Q51.6021 27.149 51.787 27.2152Q51.9719 27.2813 52.1533 27.3565Q52.3347 27.4316 52.5122 27.5156Q52.6898 27.5995 52.8629 27.6921Q53.0361 27.7847 53.2045 27.8856Q53.373 27.9866 53.5362 28.0957Q53.6995 28.2047 53.8572 28.3217Q54.015 28.4387 54.1667 28.5633Q54.3185 28.6878 54.464 28.8197Q54.6095 28.9516 54.7484 29.0904Q54.8872 29.2293 55.0191 29.3748Q55.151 29.5203 55.2756 29.6721Q55.4001 29.8239 55.5171 29.9816Q55.6341 30.1393 55.7432 30.3026Q55.8523 30.4658 55.9532 30.6343Q56.0542 30.8027 56.1467 30.9759Q56.2393 31.1491 56.3232 31.3266Q56.4072 31.5041 56.4823 31.6855Q56.5575 31.8669 56.6236 32.0518Q56.6898 32.2367 56.7468 32.4246Q56.8038 32.6125 56.8515 32.803Q56.8992 32.9935 56.9375 33.186Q56.9758 33.3786 57.0047 33.5729Q57.0335 33.7671 57.0527 33.9625Q57.072 34.158 57.0816 34.3541Q57.0912 34.5502 57.0912 34.7466L57.0912 48.4923Q57.0912 48.6886 57.0816 48.8847Q57.072 49.0809 57.0527 49.2763Q57.0335 49.4717 57.0047 49.6659Q56.9758 49.8602 56.9375 50.0528Q56.8992 50.2454 56.8515 50.4358Q56.8038 50.6263 56.7468 50.8142Q56.6898 51.0021 56.6236 51.187Q56.5575 51.3719 56.4823 51.5533Q56.4072 51.7347 56.3232 51.9123Q56.2393 52.0898 56.1467 52.263Q56.0541 52.4361 55.9532 52.6046Q55.8522 52.773 55.7431 52.9363Q55.6341 53.0995 55.5171 53.2573Q55.4001 53.415 55.2755 53.5668Q55.151 53.7186 55.0191 53.8641Q54.8872 54.0095 54.7484 54.1484Q54.6095 54.2873 54.464 54.4191Q54.3185 54.551 54.1667 54.6756Q54.0149 54.8001 53.8572 54.9171Q53.6995 55.0341 53.5362 55.1432Q53.373 55.2523 53.2045 55.3532Q53.0361 55.4542 52.8629 55.5467Q52.6897 55.6393 52.5122 55.7233Q52.3347 55.8072 52.1533 55.8824Q51.9719 55.9575 51.787 56.0237Q51.6021 56.0898 51.4142 56.1468Q51.2263 56.2038 51.0358 56.2515Q50.8453 56.2992 50.6527 56.3375Q50.4602 56.3759 50.2659 56.4047Q50.0717 56.4335 49.8763 56.4527Q49.6808 56.472 49.4847 56.4816Q49.2886 56.4912 49.0922 56.4913L8.59898 56.4913Q8.40261 56.4912 8.20648 56.4816Q8.01035 56.472 7.81494 56.4527Q7.61952 56.4335 7.42528 56.4047Q7.23104 56.3759 7.03845 56.3375Q6.84586 56.2992 6.65538 56.2515Q6.4649 56.2038 6.27699 56.1468Q6.08908 56.0898 5.90419 56.0237Q5.71931 55.9575 5.53789 55.8824Q5.35647 55.8072 5.17896 55.7233Q5.00145 55.6393 4.82827 55.5467Q4.6551 55.4542 4.48667 55.3532Q4.31824 55.2523 4.15497 55.1432Q3.9917 55.0341 3.83398 54.9171Q3.67626 54.8001 3.52446 54.6756Q3.37267 54.551 3.22718 54.4191Q3.08168 54.2872 2.94283 54.1484Q2.80398 54.0095 2.67211 53.864Q2.54024 53.7186 2.41566 53.5668Q2.29109 53.415 2.17412 53.2572Q2.05714 53.0995 1.94805 52.9363Q1.83896 52.773 1.738 52.6046Q1.63705 52.4361 1.54449 52.263Q1.45192 52.0898 1.36797 51.9123Q1.28401 51.7347 1.20886 51.5533Q1.13372 51.3719 1.06756 51.187Q1.00141 51.0021 0.94441 50.8142Q0.887408 50.6263 0.839696 50.4358Q0.791983 50.2454 0.753674 50.0528Q0.715365 49.8602 0.686553 49.6659Q0.65774 49.4717 0.638493 49.2763Q0.619246 49.0809 0.609611 48.8847Q0.599976 48.6886 0.599976 48.4923L0.599976 27.6402L0.599976 13.5313Q0.599976 13.0744 0.652 12.6205Q0.704025 12.1666 0.807397 11.7216Q0.910769 11.2765 1.06414 10.8461Q1.21752 10.4158 1.4189 10.0056Q1.62029 9.59552 1.86706 9.21101Q2.11383 8.82649 2.40278 8.47257Q2.69173 8.11865 3.0191 7.79994Q3.34647 7.48122 3.70801 7.20185L10.8675 1.66951Q11.3892 1.26639 11.9698 0.954122Q12.5505 0.641856 13.1744 0.428875Q13.7984 0.215894 14.4488 0.107947Q15.0992 0 15.7585 0Z" id="Rectangle-4-Copy" fill="#FFFFFF" fill-rule="evenodd" stroke="#7B33EF" stroke-width="2" />
  </g>
</svg>